# xmcd
#
# Track frame offsets:
#	225
#	12749
#	26829
#	40439
#	52095
#	62758
#	75974
#	89233
#	100500
#	112692
#	126306
#	139914
#	153298
#	167827
#	180255
#	193433
#	206033
#	217375
#
# Disc length: 3059
#
# Revision: 3
# Processed by: cddbd v1.5.1PL0 Copyright (c) Steve Scherf et al.
# Submitted via: audiograbber 1.81.01
# Normalized: r2:DSETVAR1
#
DISCID=0c0bf012
DTITLE=Various Artist - Havanna Bar - Great Cuban Legends
DYEAR=9999
DGENRE=Salsa
TTITLE0=Tito Puente - Arrollando
TTITLE1=Machito and His Afro-Cubans - Relax And Mambo
TTITLE2=Roberto Faz Y Su Conjunto - Nadie Balle Como Yo
TTITLE3=Tito Puente - Pito Joe
TTITLE4=Jose Melis - La Comparsita
TTITLE5=Guillermo Portabales - Se Contento Ej Jibarito
TTITLE6=La Sonora Mantacera and Es Mi Suplica De Amor - Celio Gonzalez
TTITLE7=Roberto Faz Y Su Conjunto - Rumba Pa Los Rumberos
TTITLE8=Cuban Allstars - La Novio Parchargero
TTITLE9=Roberto Faz Y Su Conjunto - En Cadenos
TTITLE10=Qrequesta Riverside - Rico De Verdad
TTITLE11=Bienvenido Granada - Titita
TTITLE12=Daniel Santos - Ce Les Con Lola
TTITLE13=Celia Cruz and La Sonora Mantancera - Juntitos Tu Y Yo
TTITLE14=Rafael Carabello - Patrona De Cuba
TTITLE15=Celeste - Cilo Tropical
TTITLE16=Arsenio Rodriguez - Se Formo La Rumbantele
TTITLE17=Tito Puente - Ricci Ricci
EXTD=
EXTT0=
EXTT1=
EXTT2=
EXTT3=
EXTT4=
EXTT5=
EXTT6=
EXTT7=
EXTT8=
EXTT9=
EXTT10=
EXTT11=
EXTT12=
EXTT13=
EXTT14=
EXTT15=
EXTT16=
EXTT17=
PLAYORDER=
